<svg width="14" height="13" viewBox="0 0 14 13" fill="none" xmlns="http://www.w3.org/2000/svg">
<path d="M6.90489 0.910737C6.9154 0.878419 6.92943 0.865517 6.9398 0.858448C6.95336 0.84921 6.97426 0.84164 7 0.84164C7.02574 0.84164 7.04664 0.849211 7.0602 0.858449C7.07057 0.865518 7.08461 0.878421 7.09511 0.910739L8.18587 4.26778L8.6614 4.11327L8.18588 4.26778C8.33314 4.72101 8.75549 5.02786 9.23204 5.02786H12.7618C12.7958 5.02786 12.8124 5.03723 12.8224 5.04491C12.8353 5.05494 12.849 5.07248 12.8569 5.09696C12.8649 5.12144 12.8642 5.14366 12.8596 5.15941C12.856 5.17146 12.8481 5.18879 12.8206 5.20877L9.96495 7.28353C9.57941 7.56364 9.41809 8.06015 9.56535 8.51337L10.6561 11.8704C10.6666 11.9027 10.6628 11.9214 10.6586 11.9332C10.6531 11.9487 10.6406 11.9671 10.6198 11.9822C10.599 11.9973 10.5776 12.0035 10.5612 12.004C10.5487 12.0044 10.5297 12.0022 10.5022 11.9822L7.64656 9.90745C7.26103 9.62734 6.73897 9.62734 6.35344 9.90745L3.49776 11.9822C3.47027 12.0022 3.45133 12.0044 3.43879 12.004C3.42239 12.0035 3.40103 11.9973 3.38021 11.9822C3.35938 11.9671 3.34692 11.9487 3.34139 11.9332C3.33715 11.9214 3.33338 11.9027 3.34388 11.8704L4.43465 8.51337C4.58191 8.06015 4.42059 7.56364 4.03505 7.28353L1.17938 5.20876C1.15189 5.18879 1.14395 5.17145 1.14044 5.15941C1.13584 5.14366 1.1351 5.12144 1.14305 5.09696C1.15101 5.07248 1.16466 5.05494 1.17764 5.04491C1.18757 5.03723 1.20418 5.02786 1.23816 5.02786H4.76796C5.24451 5.02786 5.66686 4.72101 5.81412 4.26778L6.90489 0.910737Z" stroke="white"/>
</svg>
